<svg xmlns="http://www.w3.org/2000/svg" viewBox="0 0 512 512"><path fill="currentColor" d="M464 64H48C21.49 64 0 85.49 0 112v288c0 26.51 21.49 48 48 48h416c26.51 0 48-21.49 48-48V112c0-26.51-21.49-48-48-48zM48 96h416c8.84 0 16 7.16 16 16v41.77C443.18 185.4 386.4 233.18 263.5 311.59c-3.7 2.36-11.3 8.45-15.5 8.39-4.2.06-11.8-6.04-15.5-8.39C109.6 233.18 52.82 185.4 32 153.77V112c0-8.84 7.16-16 16-16zm416 320H48c-8.84 0-16-7.16-16-16V194.07c22.51 21.93 71.69 56.05 165.85 116.81 11.42 7.42 25.71 16.74 42.15 16.66 16.46.08 30.74-9.24 42.15-16.66 94.16-60.76 143.34-94.88 165.85-116.81V400c0 8.84-7.16 16-16 16z"/></svg>
